<svg width="241" height="23" viewBox="0 0 241 23" fill="none" xmlns="http://www.w3.org/2000/svg">
<g clip-path="url(#clip0_1693_4112)">
<path d="M6.66167 14.025L2.54333 16.335L3.465 11.7033L0 8.50663L4.69 7.94663L6.66167 3.66496L8.63333 7.94663L13.3233 8.50663L9.85833 11.7033L10.78 16.335L6.66167 14.025Z" fill="#F4A263"/>
</g>
<g clip-path="url(#clip1_1693_4112)">
<path d="M25.5218 14.025L21.4034 16.335L22.3251 11.7033L18.8601 8.50663L23.5501 7.94663L25.5218 3.66496L27.4934 7.94663L32.1834 8.50663L28.7184 11.7033L29.6401 16.335L25.5218 14.025Z" fill="#F4A263"/>
</g>
<g clip-path="url(#clip2_1693_4112)">
<path d="M44.3816 14.025L40.2633 16.335L41.185 11.7033L37.72 8.50663L42.41 7.94663L44.3816 3.66496L46.3533 7.94663L51.0433 8.50663L47.5783 11.7033L48.5 16.335L44.3816 14.025Z" fill="#F4A263"/>
</g>
<g clip-path="url(#clip3_1693_4112)">
<path d="M63.2417 14.025L59.1234 16.335L60.0451 11.7033L56.5801 8.50663L61.2701 7.94663L63.2417 3.66496L65.2134 7.94663L69.9034 8.50663L66.4384 11.7033L67.3601 16.335L63.2417 14.025Z" fill="#F4A263"/>
</g>
<g clip-path="url(#clip4_1693_4112)">
<path d="M82.1016 14.025L77.9833 16.335L78.9049 11.7033L75.4399 8.50663L80.1299 7.94663L82.1016 3.66496L84.0733 7.94663L88.7633 8.50663L85.2983 11.7033L86.2199 16.335L82.1016 14.025ZM82.1016 12.695L84.5749 14.0833L84.0266 11.295L86.1149 9.36996L83.2916 9.03163L82.1016 6.45329L80.9116 9.03163L78.0883 9.36996L80.1766 11.295L79.6283 14.0833L82.1016 12.695Z" fill="#F4A263"/>
</g>
<defs>
<clipPath id="clip0_1693_4112">
<rect width="14.48" height="14" fill="white" transform="matrix(1 0 0 -1 0 17)"/>
</clipPath>
<clipPath id="clip1_1693_4112">
<rect width="14.48" height="14" fill="white" transform="matrix(1 0 0 -1 18.8601 17)"/>
</clipPath>
<clipPath id="clip2_1693_4112">
<rect width="14.48" height="14" fill="white" transform="matrix(1 0 0 -1 37.72 17)"/>
</clipPath>
<clipPath id="clip3_1693_4112">
<rect width="14.48" height="14" fill="white" transform="matrix(1 0 0 -1 56.5801 17)"/>
</clipPath>
<clipPath id="clip4_1693_4112">
<rect width="14.48" height="14" fill="white" transform="matrix(1 0 0 -1 75.4399 17)"/>
</clipPath>
</defs>
</svg>
